<svg width="1002" height="308" viewBox="0 0 1002 308" fill="none" xmlns="http://www.w3.org/2000/svg">
<g filter="url(#filter0_i)">
<path d="M90 68.0083C67.5477 84.4209 37.5193 117.225 -47 147.008L-54 152.008L-59 344.008L1032 354.008L1021 68.0083C944.481 20.4713 783.094 -35.8396 691 29.9419C670 44.9419 658.134 51.2896 622 63.0083C543.704 85.0483 494.71 90.9659 399 91.0083C317.594 88.5182 281.082 83.6252 247 63.0083C211.762 41.9733 172.142 29.7911 150 29.9419C122 29.9419 112.452 51.5956 90 68.0083Z" fill="#F54538"/>
<path d="M90 68.0083C67.5477 84.4209 37.5193 117.225 -47 147.008L-54 152.008L-59 344.008L1032 354.008L1021 68.0083C944.481 20.4713 783.094 -35.8396 691 29.9419C670 44.9419 658.134 51.2896 622 63.0083C543.704 85.0483 494.71 90.9659 399 91.0083C317.594 88.5182 281.082 83.6252 247 63.0083C211.762 41.9733 172.142 29.7911 150 29.9419C122 29.9419 112.452 51.5956 90 68.0083Z" fill="url(#paint0_linear)" fill-opacity="0.3"/>
</g>
<defs>
<filter id="filter0_i" x="-59" y="7.15256e-06" width="1101" height="374.008" filterUnits="userSpaceOnUse" color-interpolation-filters="sRGB">
<feFlood flood-opacity="0" result="BackgroundImageFix"/>
<feBlend mode="normal" in="SourceGraphic" in2="BackgroundImageFix" result="shape"/>
<feColorMatrix in="SourceAlpha" type="matrix" values="0 0 0 0 0 0 0 0 0 0 0 0 0 0 0 0 0 0 127 0" result="hardAlpha"/>
<feOffset dx="10" dy="10"/>
<feGaussianBlur stdDeviation="40"/>
<feComposite in2="hardAlpha" operator="arithmetic" k2="-1" k3="-10"/>
<feColorMatrix type="matrix" values="0 0 0 0 0 0 0 0 0 0 0 0 0 0 0 0 0 0 0.25 0"/>
<feBlend mode="normal" in2="shape" result="effect1_innerShadow"/>
</filter>
<linearGradient id="paint0_linear" x1="486.5" y1="0" x2="486.5" y2="354.008" gradientUnits="userSpaceOnUse">
<stop stop-color="#E8D2D2"/>
<stop offset="0.7" stop-color="black" stop-opacity="1"/>
</linearGradient>
</defs>
</svg>
